<svg xmlns="http://www.w3.org/2000/svg" viewBox="0 0 960 520" fill="none">
  <defs>
    <linearGradient id="bg" x1="0" y1="0" x2="960" y2="520" gradientUnits="userSpaceOnUse">
      <stop offset="0%" stop-color="#0a0a1a"/>
      <stop offset="100%" stop-color="#0d0818"/>
    </linearGradient>
  </defs>

  <!-- Background -->
  <rect width="960" height="520" rx="16" fill="url(#bg)"/>
  <rect width="960" height="520" rx="16" stroke="#1a1a2e" stroke-width="1" fill="none"/>

  <!-- Title -->
  <text x="480" y="38" text-anchor="middle" font-family="Inter,system-ui,sans-serif" font-size="20" font-weight="700" fill="#ffffff">Roadmap</text>

  <!-- Legend -->
  <rect x="340" y="52" width="12" height="12" rx="3" fill="rgba(230,0,122,0.15)" stroke="#E6007A" stroke-width="1"/>
  <text x="358" y="63" font-family="Inter,system-ui,sans-serif" font-size="11" font-weight="600" fill="#E6007A">EVM</text>
  <rect x="400" y="52" width="12" height="12" rx="3" fill="rgba(222,165,132,0.15)" stroke="#DEA584" stroke-width="1"/>
  <text x="418" y="63" font-family="Inter,system-ui,sans-serif" font-size="11" font-weight="600" fill="#DEA584">PVM</text>

  <!-- ==================== v1 NOW ==================== -->
  <rect x="24" y="82" width="300" height="410" rx="14" fill="rgba(86,243,154,0.03)" stroke="rgba(86,243,154,0.15)" stroke-width="1"/>
  <!-- Phase badge -->
  <rect x="36" y="94" width="36" height="24" rx="8" fill="rgba(86,243,154,0.12)" stroke="rgba(86,243,154,0.3)" stroke-width="1"/>
  <text x="54" y="111" text-anchor="middle" font-family="Inter,system-ui,sans-serif" font-size="11" font-weight="700" fill="#56F39A">v1</text>
  <text x="82" y="111" font-family="Inter,system-ui,sans-serif" font-size="15" font-weight="700" fill="#56F39A">Now</text>

  <!-- EVM items -->
  <rect x="36" y="128" width="276" height="32" rx="8" fill="rgba(230,0,122,0.06)" stroke="rgba(230,0,122,0.2)" stroke-width="1"/>
  <circle cx="52" cy="144" r="4" fill="#E6007A"/>
  <text x="64" y="149" font-family="Inter,system-ui,sans-serif" font-size="12" font-weight="500" fill="rgba(255,255,255,0.7)">Natural Language Intents</text>

  <rect x="36" y="168" width="276" height="32" rx="8" fill="rgba(230,0,122,0.06)" stroke="rgba(230,0,122,0.2)" stroke-width="1"/>
  <circle cx="52" cy="184" r="4" fill="#E6007A"/>
  <text x="64" y="189" font-family="Inter,system-ui,sans-serif" font-size="12" font-weight="500" fill="rgba(255,255,255,0.7)">AI Risk Guardian</text>

  <rect x="36" y="208" width="276" height="32" rx="8" fill="rgba(230,0,122,0.06)" stroke="rgba(230,0,122,0.2)" stroke-width="1"/>
  <circle cx="52" cy="224" r="4" fill="#E6007A"/>
  <text x="64" y="229" font-family="Inter,system-ui,sans-serif" font-size="12" font-weight="500" fill="rgba(255,255,255,0.7)">Token Swaps &amp; Transfers</text>

  <rect x="36" y="248" width="276" height="32" rx="8" fill="rgba(230,0,122,0.06)" stroke="rgba(230,0,122,0.2)" stroke-width="1"/>
  <circle cx="52" cy="264" r="4" fill="#E6007A"/>
  <text x="64" y="269" font-family="Inter,system-ui,sans-serif" font-size="12" font-weight="500" fill="rgba(255,255,255,0.7)">Token Factory (ERC-20)</text>

  <rect x="36" y="288" width="276" height="32" rx="8" fill="rgba(230,0,122,0.06)" stroke="rgba(230,0,122,0.2)" stroke-width="1"/>
  <circle cx="52" cy="304" r="4" fill="#E6007A"/>
  <text x="64" y="309" font-family="Inter,system-ui,sans-serif" font-size="12" font-weight="500" fill="rgba(255,255,255,0.7)">Portfolio &amp; History</text>

  <!-- PVM items -->
  <rect x="36" y="336" width="276" height="32" rx="8" fill="rgba(222,165,132,0.08)" stroke="rgba(222,165,132,0.3)" stroke-width="1"/>
  <circle cx="52" cy="352" r="4" fill="#DEA584"/>
  <text x="64" y="357" font-family="Inter,system-ui,sans-serif" font-size="12" font-weight="600" fill="#DEA584">Rust Risk Engine</text>

  <rect x="36" y="376" width="276" height="32" rx="8" fill="rgba(222,165,132,0.08)" stroke="rgba(222,165,132,0.3)" stroke-width="1"/>
  <circle cx="52" cy="392" r="4" fill="#DEA584"/>
  <text x="64" y="397" font-family="Inter,system-ui,sans-serif" font-size="12" font-weight="600" fill="#DEA584">XCM Cross-Chain Bridge</text>

  <!-- Divider line -->
  <line x1="36" y1="330" x2="312" y2="330" stroke="rgba(255,255,255,0.06)" stroke-width="1"/>

  <!-- Test count -->
  <text x="174" y="476" text-anchor="middle" font-family="Inter,system-ui,sans-serif" font-size="11" font-weight="600" fill="rgba(255,255,255,0.25)">223 tests passing</text>

  <!-- ==================== v2 NEXT ==================== -->
  <rect x="336" y="82" width="300" height="410" rx="14" fill="rgba(255,255,255,0.02)" stroke="rgba(255,255,255,0.1)" stroke-width="1"/>
  <rect x="348" y="94" width="36" height="24" rx="8" fill="rgba(255,255,255,0.08)" stroke="rgba(255,255,255,0.2)" stroke-width="1"/>
  <text x="366" y="111" text-anchor="middle" font-family="Inter,system-ui,sans-serif" font-size="11" font-weight="700" fill="rgba(255,255,255,0.9)">v2</text>
  <text x="394" y="111" font-family="Inter,system-ui,sans-serif" font-size="13" font-weight="700" fill="rgba(255,255,255,0.9)">April 2026</text>

  <!-- EVM items -->
  <rect x="348" y="128" width="276" height="32" rx="8" fill="rgba(230,0,122,0.06)" stroke="rgba(230,0,122,0.2)" stroke-width="1"/>
  <circle cx="364" cy="144" r="4" fill="#E6007A"/>
  <text x="376" y="149" font-family="Inter,system-ui,sans-serif" font-size="12" font-weight="500" fill="rgba(255,255,255,0.7)">EIP-7702 Smooth Mode</text>

  <rect x="348" y="168" width="276" height="32" rx="8" fill="rgba(230,0,122,0.06)" stroke="rgba(230,0,122,0.2)" stroke-width="1"/>
  <circle cx="364" cy="184" r="4" fill="#E6007A"/>
  <text x="376" y="189" font-family="Inter,system-ui,sans-serif" font-size="12" font-weight="500" fill="rgba(255,255,255,0.7)">NFT Trading</text>

  <rect x="348" y="208" width="276" height="32" rx="8" fill="rgba(230,0,122,0.06)" stroke="rgba(230,0,122,0.2)" stroke-width="1"/>
  <circle cx="364" cy="224" r="4" fill="#E6007A"/>
  <text x="376" y="229" font-family="Inter,system-ui,sans-serif" font-size="12" font-weight="500" fill="rgba(255,255,255,0.7)">People Chain Identity</text>

  <!-- Divider -->
  <line x1="348" y1="250" x2="624" y2="250" stroke="rgba(255,255,255,0.06)" stroke-width="1"/>

  <!-- PVM items -->
  <rect x="348" y="258" width="276" height="32" rx="8" fill="rgba(222,165,132,0.08)" stroke="rgba(222,165,132,0.3)" stroke-width="1"/>
  <circle cx="364" cy="274" r="4" fill="#DEA584"/>
  <text x="376" y="279" font-family="Inter,system-ui,sans-serif" font-size="12" font-weight="600" fill="#DEA584">Multi-Pool Correlation</text>

  <rect x="348" y="298" width="276" height="32" rx="8" fill="rgba(222,165,132,0.08)" stroke="rgba(222,165,132,0.3)" stroke-width="1"/>
  <circle cx="364" cy="314" r="4" fill="#DEA584"/>
  <text x="376" y="319" font-family="Inter,system-ui,sans-serif" font-size="12" font-weight="600" fill="#DEA584">Oracle Price Feeds</text>

  <rect x="348" y="338" width="276" height="32" rx="8" fill="rgba(222,165,132,0.08)" stroke="rgba(222,165,132,0.3)" stroke-width="1"/>
  <circle cx="364" cy="354" r="4" fill="#DEA584"/>
  <text x="376" y="359" font-family="Inter,system-ui,sans-serif" font-size="12" font-weight="600" fill="#DEA584">Dynamic Risk Thresholds</text>

  <!-- ==================== v3 FUTURE ==================== -->
  <rect x="648" y="82" width="300" height="410" rx="14" fill="rgba(255,255,255,0.02)" stroke="rgba(255,255,255,0.1)" stroke-width="1"/>
  <rect x="660" y="94" width="36" height="24" rx="8" fill="rgba(255,255,255,0.08)" stroke="rgba(255,255,255,0.2)" stroke-width="1"/>
  <text x="678" y="111" text-anchor="middle" font-family="Inter,system-ui,sans-serif" font-size="11" font-weight="700" fill="rgba(255,255,255,0.9)">v3</text>
  <text x="706" y="111" font-family="Inter,system-ui,sans-serif" font-size="13" font-weight="700" fill="rgba(255,255,255,0.9)">June 2026</text>

  <!-- EVM items -->
  <rect x="660" y="128" width="276" height="32" rx="8" fill="rgba(230,0,122,0.06)" stroke="rgba(230,0,122,0.2)" stroke-width="1"/>
  <circle cx="676" cy="144" r="4" fill="#E6007A"/>
  <text x="688" y="149" font-family="Inter,system-ui,sans-serif" font-size="12" font-weight="500" fill="rgba(255,255,255,0.7)">AI Trading Strategies</text>

  <rect x="660" y="168" width="276" height="32" rx="8" fill="rgba(230,0,122,0.06)" stroke="rgba(230,0,122,0.2)" stroke-width="1"/>
  <circle cx="676" cy="184" r="4" fill="#E6007A"/>
  <text x="688" y="189" font-family="Inter,system-ui,sans-serif" font-size="12" font-weight="500" fill="rgba(255,255,255,0.7)">Liquidity Provision</text>

  <rect x="660" y="208" width="276" height="32" rx="8" fill="rgba(230,0,122,0.06)" stroke="rgba(230,0,122,0.2)" stroke-width="1"/>
  <circle cx="676" cy="224" r="4" fill="#E6007A"/>
  <text x="688" y="229" font-family="Inter,system-ui,sans-serif" font-size="12" font-weight="500" fill="rgba(255,255,255,0.7)">DEX Aggregation</text>

  <!-- Divider -->
  <line x1="660" y1="250" x2="936" y2="250" stroke="rgba(255,255,255,0.06)" stroke-width="1"/>

  <!-- PVM items -->
  <rect x="660" y="258" width="276" height="32" rx="8" fill="rgba(222,165,132,0.08)" stroke="rgba(222,165,132,0.3)" stroke-width="1"/>
  <circle cx="676" cy="274" r="4" fill="#DEA584"/>
  <text x="688" y="279" font-family="Inter,system-ui,sans-serif" font-size="12" font-weight="600" fill="#DEA584">MEV Protection On-Chain</text>

  <rect x="660" y="298" width="276" height="32" rx="8" fill="rgba(222,165,132,0.08)" stroke="rgba(222,165,132,0.3)" stroke-width="1"/>
  <circle cx="676" cy="314" r="4" fill="#DEA584"/>
  <text x="688" y="319" font-family="Inter,system-ui,sans-serif" font-size="12" font-weight="600" fill="#DEA584">Cross-Chain Risk via XCM</text>

  <rect x="660" y="338" width="276" height="32" rx="8" fill="rgba(222,165,132,0.08)" stroke="rgba(222,165,132,0.3)" stroke-width="1"/>
  <circle cx="676" cy="354" r="4" fill="#DEA584"/>
  <text x="688" y="359" font-family="Inter,system-ui,sans-serif" font-size="12" font-weight="600" fill="#DEA584">Governance Risk Parameters</text>

</svg>